<?xml version="1.0" encoding="UTF-8" standalone="no"?>
<svg
   xmlns:dc="http://purl.org/dc/elements/1.1/"
   xmlns:cc="http://creativecommons.org/ns#"
   xmlns:rdf="http://www.w3.org/1999/02/22-rdf-syntax-ns#"
   xmlns:svg="http://www.w3.org/2000/svg"
   xmlns="http://www.w3.org/2000/svg"
   xmlns:sodipodi="http://sodipodi.sourceforge.net/DTD/sodipodi-0.dtd"
   xmlns:inkscape="http://www.inkscape.org/namespaces/inkscape"
   width="300"
   height="300"
   viewBox="0 0 300 300"
   version="1.1"
   id="svg2216"
   inkscape:version="1.0.1 (3bc2e813f5, 2020-09-07)"
   sodipodi:docname="_MASTER-FRAME-FONT-NEW.svg">
  <defs
     id="defs2210" />
  <sodipodi:namedview
     id="base"
     pagecolor="#ffffff"
     bordercolor="#666666"
     borderopacity="1.0"
     inkscape:pageopacity="0.0"
     inkscape:pageshadow="2"
     inkscape:zoom="0.98994949"
     inkscape:cx="233.17409"
     inkscape:cy="184.99516"
     inkscape:document-units="px"
     inkscape:current-layer="layer1"
     showgrid="false"
     units="px"
     inkscape:window-width="1366"
     inkscape:window-height="705"
     inkscape:window-x="-8"
     inkscape:window-y="-8"
     inkscape:window-maximized="1"
     fit-margin-top="10"
     fit-margin-left="10"
     fit-margin-bottom="10"
     fit-margin-right="10"
     inkscape:showpageshadow="false"
     scale-x="1"
     inkscape:document-rotation="0" />
  <metadata
     id="metadata2213">
    <rdf:RDF>
      <cc:Work
         rdf:about="">
        <dc:format>image/svg+xml</dc:format>
        <dc:type
           rdf:resource="http://purl.org/dc/dcmitype/StillImage" />
        <dc:title />
      </cc:Work>
    </rdf:RDF>
  </metadata>
  <g
     inkscape:label="Layer 1"
     inkscape:groupmode="layer"
     id="layer1"
     transform="translate(0,0)">
    
<g
       id="text6_2_"
       class="st0"
       style="fill:#000002;fill-opacity:1;stroke-width:1.07113"
       transform="matrix(0.93983311,0,0,0.92738408,-63.953008,21.464567)">
      <path
         d="m 113.9,234.4 c 0,-12.3 0,-24.5 0,-36.8 2.9,0.5 4.3,0.8 7.2,1.3 0,-40.4 0.1,-80.7 0.1,-121.1 -2.9,0.6 -4.4,0.9 -7.4,1.5 0,-12.3 0,-24.5 0,-36.8 14.8,-4.7 30,-8.8 45.3,-11.7 -0.1,13.7 -0.1,27.4 -0.2,41.2 -3,0.4 -4.4,0.5 -7.4,0.9 -0.1,11.6 -0.1,23.1 -0.2,34.7 7,-12.3 13.9,-24.6 20.7,-37 -1.4,0.1 -2.2,0.2 -3.6,0.4 0.1,-13.9 0.2,-27.9 0.2,-41.8 16.1,-2.6 32.4,-4.4 48.8,-4.8 -0.1,14.6 -0.2,29.2 -0.3,43.8 -2.4,0 -3.6,0.1 -6,0.1 -9.9,17.8 -19.9,35.7 -30,53.5 9,28.9 17.7,57.9 26.3,86.9 3.4,0.1 5.2,0.2 8.6,0.3 -0.1,14.6 -0.2,29.2 -0.3,43.8 -16.2,-0.6 -32.3,-2.6 -48.2,-5.3 0.1,-13.9 0.2,-27.9 0.2,-41.8 2.7,0.3 4,0.4 6.7,0.7 -4.8,-16 -9.8,-31.9 -14.8,-47.8 -3.4,5.8 -5.2,8.6 -8.6,14.2 0,10.3 -0.1,20.6 -0.1,30.9 2.9,0.4 4.4,0.6 7.3,0.9 -0.1,13.7 -0.1,27.4 -0.2,41.2 -14.8,-3.4 -29.4,-7.1 -44.1,-11.4 z"
         id="path6"
         style="fill:#000002;fill-opacity:1;stroke-width:1.07113" />
    </g>



<g
       id="text6_2_"
       class="st0"
       style="fill:#000002;fill-opacity:1;stroke-width:1.07137"
       transform="matrix(0.93942054,0,0,0.92738408,-64,21.464567)">
      <path
         d="m 341.7,150.9 c -0.1,17.6 -0.1,35.3 -0.2,52.9 -9.5,12.8 -18.7,25.8 -27.8,38.9 -25.7,5.9 -50.8,9.3 -77.2,10.2 0.1,-14.6 0.2,-29.2 0.3,-43.8 3.2,0 4.8,0 7.9,-0.1 0.4,-46.9 0.7,-93.8 1.1,-140.7 -3.2,-0.1 -4.7,-0.2 -7.9,-0.2 0.1,-14.6 0.2,-29.2 0.3,-43.8 26,1.2 50.8,4.7 76.2,10.5 8.8,13.1 17.8,26 27.2,38.7 0,17.5 0,35.1 0,52.6 -4.4,4.8 -6.7,7.4 -11.1,12.6 4.5,5 6.7,7.5 11.2,12.2 z M 309.1,84 c -3.3,-4.4 -4.9,-6.7 -8.1,-11.2 -9.1,-1.2 -13.7,-1.7 -22.8,-2.5 -0.1,15.7 -0.2,31.4 -0.3,47.1 9.1,0.3 13.7,0.4 22.8,0.8 3.3,-4 5,-6 8.3,-9.8 0,-9.8 0.1,-14.6 0.1,-24.4 z m -8.8,120.8 c 3.3,-4.6 5,-6.8 8.3,-11.3 0,-9.7 0.1,-14.6 0.1,-24.3 -3.3,-3.8 -4.9,-5.8 -8.2,-9.8 -9.2,0.4 -13.8,0.5 -22.9,0.8 -0.1,15.7 -0.2,31.4 -0.3,47.1 9.2,-0.8 13.8,-1.3 23,-2.5 z"
         id="path8"
         style="fill:#000002;fill-opacity:1;stroke-width:1.07137" />
    </g>



  </g>
</svg>
